<mxfile host="65bd71144e">
    <diagram id="DXC2dXwVx_xPX1XQYb1X" name="Seite-1">
        <mxGraphModel dx="1563" dy="1022" grid="1" gridSize="10" guides="1" tooltips="1" connect="1" arrows="1" fold="1" page="1" pageScale="1" pageWidth="827" pageHeight="1169" math="0" shadow="0">
            <root>
                <mxCell id="0"/>
                <mxCell id="1" parent="0"/>
                <mxCell id="2" value="" style="rounded=0;whiteSpace=wrap;html=1;fillColor=#FFFFFF;strokeColor=#000000;" parent="1" vertex="1">
                    <mxGeometry x="260" y="230" width="210" height="210" as="geometry"/>
                </mxCell>
                <mxCell id="3" value="Param-Entw 1" style="rounded=0;whiteSpace=wrap;html=1;strokeColor=#001DBC;fillColor=#0050ef;fontColor=#ffffff;align=left;" parent="1" vertex="1">
                    <mxGeometry x="260" y="230" width="210" height="30" as="geometry"/>
                </mxCell>
                <mxCell id="10" value="online" style="rounded=1;whiteSpace=wrap;html=1;arcSize=50;strokeColor=none;strokeWidth=1;fillColor=#33A64C;fontColor=#FFFFFF;whiteSpace=wrap;align=center;verticalAlign=middle;spacingLeft=0;fontStyle=1;fontSize=14;spacing=10;" parent="1" vertex="1">
                    <mxGeometry x="410" y="235" width="55" height="20" as="geometry"/>
                </mxCell>
                <mxCell id="11" value="&lt;font style=&quot;font-size: 24px;&quot;&gt;9&lt;/font&gt;" style="ellipse;whiteSpace=wrap;html=1;aspect=fixed;strokeColor=#001DBC;fillColor=#0050ef;fontSize=24;labelBackgroundColor=none;fontColor=#FFFFFF;" parent="1" vertex="1">
                    <mxGeometry x="417.5" y="270" width="40" height="40" as="geometry"/>
                </mxCell>
                <mxCell id="12" value="&lt;font color=&quot;#000000&quot;&gt;&lt;font style=&quot;font-size: 10px&quot;&gt;Stage&lt;/font&gt;&lt;br&gt;Entwicklung&lt;/font&gt;" style="text;html=1;strokeColor=none;fillColor=none;align=left;verticalAlign=middle;whiteSpace=wrap;rounded=0;labelBackgroundColor=none;fontSize=12;fontColor=#FFFFFF;" parent="1" vertex="1">
                    <mxGeometry x="270" y="270" width="80" height="30" as="geometry"/>
                </mxCell>
                <mxCell id="13" value="&lt;font color=&quot;#000000&quot;&gt;&lt;font style=&quot;font-size: 10px&quot;&gt;Syr Version&lt;/font&gt;&lt;br&gt;3.13.00.00-00&lt;/font&gt;" style="text;html=1;strokeColor=none;fillColor=none;align=left;verticalAlign=middle;whiteSpace=wrap;rounded=0;labelBackgroundColor=none;fontSize=12;fontColor=#FFFFFF;" parent="1" vertex="1">
                    <mxGeometry x="270" y="310" width="80" height="30" as="geometry"/>
                </mxCell>
                <mxCell id="14" value="Idle" style="rounded=0;whiteSpace=wrap;html=1;labelBackgroundColor=none;fontSize=17;fontColor=#ffffff;strokeColor=#2D7600;fillColor=#60a917;" parent="1" vertex="1">
                    <mxGeometry x="260" y="410" width="210" height="30" as="geometry"/>
                </mxCell>
                <mxCell id="16" value="&lt;u&gt;DB-URL&lt;/u&gt;" style="text;html=1;strokeColor=none;fillColor=none;align=left;verticalAlign=middle;whiteSpace=wrap;rounded=0;labelBackgroundColor=none;fontSize=12;fontColor=#3333FF;" parent="1" vertex="1">
                    <mxGeometry x="270" y="340" width="60" height="30" as="geometry"/>
                </mxCell>
                <mxCell id="17" value="&lt;u&gt;GRR-URL&lt;/u&gt;" style="text;html=1;strokeColor=none;fillColor=none;align=left;verticalAlign=middle;whiteSpace=wrap;rounded=0;labelBackgroundColor=none;fontSize=12;fontColor=#3333FF;" parent="1" vertex="1">
                    <mxGeometry x="270" y="370" width="60" height="30" as="geometry"/>
                </mxCell>
                <mxCell id="18" value="" style="shape=image;verticalLabelPosition=bottom;verticalAlign=top;imageAspect=0;image=data:image/png,iVBORw0KGgoAAAANSUhEUgAAAIAAAACACAYAAADDPmHLAAAABHNCSVQICAgIfAhkiAAAAAlwSFlzAAADsQAAA7EB9YPtSQAAABl0RVh0U29mdHdhcmUAd3d3Lmlua3NjYXBlLm9yZ5vuPBoAAA63SURBVHic7Z1rdFVlesd/zz47AQIYEOUmjDLW2hnR1mlhVEDj6AAh5Aon7bIyU21nbHUt1uqq1UFBAgjOzLIf2umatbRVpzNMVw2ThOSQcBmRIBDBWS4vXLR1KjrcEzKgQAjJOfvph5OTQsjlXPblJGf/PsE+e7/PP+v/P+9+z768rzDUUKSgetE0FevrojpNhZsEpirWeEHGAeOA4SjZCCO7jrmA0AG0A62KtgpGM2L9Dsv4HKxPIeuj+rKqwwjq4V9nO+K1gFQpqi2aHIkwSzFmieoMhNuB0Q6V+xLlAIa+I5bsMUxtqiuuO+5QLVcYdAHIb8gfZl4adp+FlS8q+Qq3eizpY0UawNoyMjxs54byDR0e60mIQRGAvB155oizY75tWFqOUAKM8VpTH5xR2Aha2Tb2yzca728Mey1oINI6APlVZVMMifwlwuMoX/FaT4KcAH6Omi/XL6r61GsxfZGWASisLp1toUtBy4CA13pSxEJ4U4R/2VRSG/JaTE/SKgALqksXilgrUf7May2OoOwTZfWmxbUNXkuJkRYBWFhT8oBauhbhm15rcYm3UX22flHdDq+FeBqAeVVlk7KMyI9UWeKlDq8QdFPAkMdrS2qPeKfBA/J25Jmjzl7zhKqsBq7xQkPaoFwQ5MURkax1XvyEdD0A0QGe9VPgdrdrpzf6AYY8Xl9S2+RmVdcCEKwMBi4GOleo6ArAcKvuIEMFfnKiZcKT7z72cqcbBV0JQFFt0YSIJetRHnSj3mBH0Z1mgIfcuMzseAAW1pQ8oKrrgYlO1xpaaIvCdxrK6rY4WcWxAFRUVBi/ueO9NcAyJ+sMcSxE19aX1K106i6kI8bkvZY3fGRu7mvAXzjRfuah60+2THzUiXGB7QEoDBVeZ3UYmzLooo47CA2GaQVDhaE2e5u1kaLaogmRiPwa/yeeU7xjZFkFocLQabsatC0AxRuLp4Yt2Q56i11t+vTKIUsD8zYvqj5qR2O2BGBuden4LKydwB/Z0Z7PQMgnncjsbWU1zam2lPIFmcJQ4XVZWG/im+8ieksWVihYGRyVakspBSBYGRxhdRp1wG2pCvFJmJltWR01wcpgdiqNJB2AiooKo83sXA/cnYoAnxRQHmwzO16tqKhI2sekn7YZuTT3eeD7yR7vYxt3HJ9wUj55/b8bkzk4qUHgguqi+YLU49/USRcsQyQ/VLpxW6IHJhyABZULJoqZ9R7+tf20QqDZCOidid5ASugbHKwMBgwz+5f45qcdCuPDEf4zWBlM6LSeUADazI7Vin4rMWk+biHIfRcDnSsSOyZOup7k2Yl/3k93LEv13s2L6vbEs3NcZubtyDMtIv8a7/4+nmIERF7Jey1veFw7x7PTqDPXLAX549R0+biFwq0jc3OXxbPvgKeAeVVlk0yJfATkpqzMx006xIpM37R40yf97TRgD2CK9c/45g9GstUwfzjQTv32AF3P871hnyYftzEw8kJlNTv7+tzs7+Cu17V8ksQ0TP7qtiXcPfkujp8/wUsf/jtHz9lyGz9uLLXWAbP6+rxPexduLC5UizpHVGUApmGybOZTfHPSzO5t5zvPs3z3Sn579n/dFWMxv35x7dbePupzDKDKc84pGtr0Zj7AqKxRPD97FX8w5mZ3BRms7PujXlhYU5I3ZF/Rdpi+zI/hUQjuzq8q6vU00HsPoNY/OCpniGIaJj+Y+Y99mh/DixAI8mTv23tQULXoq0j4E/yrfgkRM/+uSfE/De/ymMCKiNy8pXTjZ5dvvMpkJfI3vW336ZtkzAfXewIjgPVoz41X9AB5O/LMkWdyPwcmu6FoKJCs+ZfjYk9wLCecfeOG8g2R2IYrvumjWnPn4psfN3aYD672BDe0Z3U+cPmGKwKghpQ7rWCoYJf5MdwKgWVZV3jcfQoIVgaz28yOk8BYRxUMAQb6qZcKZy+d5YntS/ni0pe2t93FmZxw9sTYdDTdPUB7VmcevvkD4qT5AGOGjWH2DX1eubWDsefN9tmx/3QHwMLKd7LqUMBp82Oc6zjvaPsBjPmxf3cHQFT8APSDW+Z/2LKfPcecnSdKodtrA6JTrqfBrNtpS7xX+FLlUOtHrNm7johGBt45NaYvqFwwEboCELaM2f3vn7nYPdrvi0OtH7GyaTUXwxcdrRNDTPMe6AqAoeroqGOw4qb5zzWtcs18AMWYBV0BUP/O31W4bX57uN3ROj0RrJkABoogTHe1eppjGoEhbX4UuR1FJL+m5GZD9bceKEhLouY/NcTNj2KErRsNUfmaZwrSjEwyHyBiytdNUZ2WTg9+js4ezZ/fupjrRlxH45G32Htinyt13Trn7z99gFVNz9Me8dZ8ABFjmtm1rl5aMGbYGNbNWcNXRk8FYPYNs/iPg+vZ8D+/crSuW+f8g62HWPV2epgPIKrTDEHTYjGmnubH+O5tDxP8w8WO1XWr2z/YeoiVTas97/YvR9EbDWC810L6Mj+GUyHIZPOjyPUG0aVUPWMg82PYHQLffFAYZwDXeiUgXvNj2BUC3/wo0hWAHC+KJ2p+jFRD4Jt/BTkGkNJEg8mQrPkxkg2BaQR4eoY7o/1BYD7AMNcDkKr5MRINQcz8uyfflVLdgRhE5kNXAFzDLvNjxBsC3/w+UQNwZa264YHh/HDO87aZH+O7tz1M6S3FfX7ulvkftHzIc3u8v7ybEMol1wKQN/Vepoye4kjbfz39kV5D4Kb5q99ey6XIJUfr2I5EA3DBjVqGOHu26RkC0wjw1IwnffP7p80Afu9GpcYjb3HywilHa8RCEDP/nsnOTmQ+yM0HtFUKqot3AHlulJuQM54X5qxlfM71jtb57IvPuCn3JkdrDH7zAdhuALYtQDQQp9qaeXrXM5xqc7YncNr8A6cPsmbvusFuPiqcNhD93M2iLW0t/GDXcsdD4BQHTh+komnN4Brt94WlnxtYhqsBgGgIlg3CEHSbnyb381PFEA4bYH3qRfHm7hCkvPCVKww18wEs+MwwsvSQVwKiIXg27UMwFM0HyDLkoKBIQU3xWeAar4SMz7meF+asZUKO58+mXMVQNR84W19ae62BoCgHvFTS3NbCM2l4OhjC5gPsR6L3AsDQdzwWw6m2ZpbvXknrxVavpQDwXvP70Ue3h6b5APug69UwsSSu1SWc5sSFEyzbvcLzELzX/D5r9q6jI+LKbRJPMCTquQFgRTp3eyvn/zl+/rinIcgE8wG9pNIEXQFoKG84CXzsqaTL8CoEGWI+CvtjC09ffotus0d6eiUWgt+3u3KvKmPMB0B1S+yf3QFQNK0CAF0h2LXc8RBklPmAwNUBONUysRGXbg0nwjGHQ5Bp5gNnciLDugf93QF497GXOxVqvdHUP06FIAPNB/hVbI5A6DFTqFi87r6e+Dh2/jjP7LJvTJCh5iMiV3h8RQAujPtiO3DMVUUJcPT8sa4QnEmpnUw1Hzg6ojOr8fINVwSg8f7GMPAzFwUlTDQEy5MOQQabD/Dq5TOFQy/rAhim9QpguSYpCZINQYabb6kGXu258aoAhIpCh0FC7mhKnqPnj/HM7vhPBxluPiAbGxZVX/XwT+/Pahv6T47rsYGj547yzO4VnBkgBL75IMiLvW/vg4Kq4r0Izr5FaRNTRk/hhdlrGDv86snOffMB2FNfVtvrbLB9vq0hymrn9NjL0XNHWdZLT+Cb34VS0ddH/c4PVVBd/BYwx249TjF19BQe/5O/ZeroKew+1sSrB37mm9/Ptx8GWDsY1ZWIvGm7JIc4cu4oy3Yt91pGemGwrP+P+6F+Ud0O4L9sFeTjIlpZX1K7q789BnxjU8Odfw98YZsmH7doj4jx9EA7DRiAhvKGk6hU2CLJx01e6LlKaG/E9c52TiTrJ8D7qSrycY2PreEdP4pnx7gCsKF8QwSDJ0jzS8Q+AEQE49HNCzbH9eZq3LM21JfUNiG6NnldPi6xelNZzdvx7pzQtB0zPvhGBbA9UUU+rtGYE85O6Eua8EThRbVFEyIReR+YmOixPo5yKqyBO7cuqj6RyEEJT9xTV1x3CtWHAMfXNvOJG0vRJYmaD0kEALouEImuS+ZYH0dY1VBW9+tkDkx+rQhFFtQUvyLwSNJt+NiArq8vrfsOgiZzdPJztwk6Mpz9PVU2Jt2GT0oIuunC2C8fSdb8aBspEqwMjmgzL20D8VcfdRNlX+eoiw9sm7ctpXkebVku6MHKYG622fGWwB12tOczIAfD4ex7t5ZvSPkZeVum73yjfMMXqoECwLPpZjKIgxKOzLPDfLCpB4hRsKlgLB1mCPDXInYCZZ+RbS0MFYZsm9vR1gl86xfWnzGyrLlAvZ3t+kQHfEa29S07zQebAwAQKgy15YSzi1F9xe62MxWFn59omVgWKgy12d22c2tGRmcfqwCW40DQMoQIsLq+tHZNKj/1+sPxRUMLqoruR+SXwCSnaw0ttAVLltQvrt3qZBVXVo2dW1063sT6hcBcN+oNARrDGngomWv7ieLessHRU8JTwFog4FrdwYUCP84JZz/b8yVOp3B93ej8qqJZhsi/Af6y9VdyUDC+l8jDHHbg+uBs86K6PdbwjjuB1cDgnnDfHtqBlTnh7G+4bT540ANcTvHG4qkRZa0qS7zU4RWCbhJTl0bfyPZKQxpQWF16n4W1lsy5grgLg2cHemnDDdIiADEWVBfNF+Q5wNnVnrxjj6JJP7zhBGkVgBj5VUWzBHlShCIG/0UkC6jF4MX6ktomr8X0JC0DEGNh5cIb1Aw8DPwdcKPXehLkOPALw7Re8vIcPxBpHYAYwcpgoD2r8wHLssoRKQWu9VpTH7QK1Kjyek4ke4dbv+VTYVAE4HL+9KXvZ00a33yvqs4H5gPTvdSj8KEBWyNYW5pbJu1697GXO73UkyiDLgA9KaotmmCF5R4V5oDOALkdyHWo3FlgvyK/CQi7Lqk0xWbdHqwM+gD0xoKqshuR8NdE5asi3KQwFZigME5gHJBDdHKM0V2HnAPCQJtGu/FW4JTAERU5rGodDoT1UKg89Dtv/iLn+D/v8CxSn3MQIQAAAABJRU5ErkJggg==;labelBackgroundColor=none;fontSize=12;fontColor=#3333FF;strokeColor=#000000;fillColor=#FFFFFF;aspect=fixed;" parent="1" vertex="1">
                    <mxGeometry x="332" y="375" width="20" height="20" as="geometry"/>
                </mxCell>
                <mxCell id="19" value="" style="rounded=0;whiteSpace=wrap;html=1;fillColor=#FFFFFF;strokeColor=#000000;" vertex="1" parent="1">
                    <mxGeometry x="290" y="530" width="100" height="100" as="geometry"/>
                </mxCell>
                <mxCell id="20" value="TP 9" style="rounded=0;whiteSpace=wrap;html=1;strokeColor=#001DBC;fillColor=#0050ef;fontColor=#ffffff;align=center;" vertex="1" parent="1">
                    <mxGeometry x="290" y="500" width="50" height="30" as="geometry"/>
                </mxCell>
                <mxCell id="21" value="&lt;font color=&quot;#000000&quot;&gt;&lt;font style=&quot;font-size: 10px&quot;&gt;Quelle&lt;/font&gt;&lt;br&gt;Param-Entw 1&lt;/font&gt;" style="text;html=1;strokeColor=none;fillColor=none;align=left;verticalAlign=middle;whiteSpace=wrap;rounded=0;labelBackgroundColor=none;fontSize=12;fontColor=#FFFFFF;" vertex="1" parent="1">
                    <mxGeometry x="295" y="563" width="80" height="30" as="geometry"/>
                </mxCell>
                <mxCell id="22" value="&lt;font color=&quot;#000000&quot;&gt;&lt;font style=&quot;font-size: 10px&quot;&gt;Name&lt;/font&gt;&lt;br&gt;Demo&lt;/font&gt;" style="text;html=1;strokeColor=none;fillColor=none;align=left;verticalAlign=middle;whiteSpace=wrap;rounded=0;labelBackgroundColor=none;fontSize=12;fontColor=#FFFFFF;" vertex="1" parent="1">
                    <mxGeometry x="295" y="533" width="80" height="30" as="geometry"/>
                </mxCell>
                <mxCell id="23" value="&lt;font color=&quot;#000000&quot;&gt;&lt;font style=&quot;font-size: 10px&quot;&gt;Erstellt&lt;/font&gt;&lt;br&gt;18.01.2023&lt;/font&gt;" style="text;html=1;strokeColor=none;fillColor=none;align=left;verticalAlign=middle;whiteSpace=wrap;rounded=0;labelBackgroundColor=none;fontSize=12;fontColor=#FFFFFF;" vertex="1" parent="1">
                    <mxGeometry x="295" y="593" width="80" height="30" as="geometry"/>
                </mxCell>
            </root>
        </mxGraphModel>
    </diagram>
</mxfile>